<svg xmlns="http://www.w3.org/2000/svg" width="109.574" height="38.141" viewBox="0 0 109.574 38.141"><defs><style>.a{fill:#fff;}</style></defs><g transform="translate(-420.685 -221.491)"><g transform="translate(421.583 254.078)"><path class="a" d="M423.219,282.742h-.965v-4.225h.965v1.66h1.3v-1.66h.966v4.225h-.966v-1.75h-1.3Z" transform="translate(-422.254 -278.456)"/><path class="a" d="M434.424,279.332h-1.661v.846h1.419v.815h-1.419v.935h1.721v.815H431.8v-4.225h2.626Z" transform="translate(-426.334 -278.456)"/><path class="a" d="M441.061,280.584c0,.966.362,1.359.966,1.359a3.009,3.009,0,0,0,1.026-.181v.815a3.521,3.521,0,0,1-1.116.181c-1.388,0-1.872-1.026-1.872-2.173s.483-2.173,1.872-2.173a3.505,3.505,0,0,1,1.116.181v.815a3.008,3.008,0,0,0-1.026-.181C441.423,279.226,441.061,279.618,441.061,280.584Z" transform="translate(-429.868 -278.411)"/><path class="a" d="M449.995,282.742h-.966v-4.225h.966v1.66h1.3v-1.66h.966v4.225h-.966v-1.75h-1.3Z" transform="translate(-433.7 -278.456)"/><path class="a" d="M461.905,280.584c0,1.207-.483,2.173-1.751,2.173s-1.751-.966-1.751-2.173c0-1.183.483-2.173,1.751-2.173S461.905,279.4,461.905,280.584Zm-2.505,0c0,.96.151,1.359.755,1.359s.755-.4.755-1.359c0-.936-.151-1.358-.755-1.358S459.4,279.649,459.4,280.584Z" transform="translate(-437.708 -278.411)"/><path class="a" d="M469.825,281.55c0-.3-.247-.416-.694-.664a1.48,1.48,0,0,1-.965-1.358c0-.845.815-1.117,1.418-1.117a3.536,3.536,0,0,1,1.1.181v.815a3.705,3.705,0,0,0-1.068-.181c-.271,0-.483.12-.483.362,0,.272.224.381.665.6.736.368,1.027.755,1.027,1.3,0,.905-.665,1.268-1.51,1.268a4.279,4.279,0,0,1-1.207-.181v-.815a3.917,3.917,0,0,0,1.177.181C469.584,281.943,469.825,281.852,469.825,281.55Z" transform="translate(-441.855 -278.411)"/></g><g transform="translate(455.887 254.078)"><path class="a" d="M485.511,280.584c0,1.044-.344,1.9-1.2,2.113l.99,1.268h-.918l-.736-1.219c-1.063-.09-1.473-1.014-1.473-2.161,0-1.183.459-2.173,1.672-2.173S485.511,279.4,485.511,280.584Zm-2.566,0c0,.96.175,1.539.9,1.539s.893-.579.893-1.539c0-.936-.175-1.533-.893-1.533S482.945,279.649,482.945,280.584Z" transform="translate(-482.173 -278.411)"/><path class="a" d="M491.98,278.517h.743v2.819c0,.519.218.833.791.833.549,0,.791-.314.791-.833v-2.819h.743v2.819a1.535,1.535,0,0,1-3.067,0Z" transform="translate(-486.365 -278.456)"/><path class="a" d="M503.957,279.156h-1.69v1.111h1.449v.639h-1.449v1.2h1.751v.633h-2.493v-4.225h2.433Z" transform="translate(-490.445 -278.456)"/></g><g transform="translate(474.682 254.078)"><path class="a" d="M515,279.332v-.815h2.837v.815H516.9v3.41h-.965v-3.41Z" transform="translate(-515.002 -278.456)"/><path class="a" d="M525.725,281.076l.935,1.666H525.5l-.754-1.569h-.29v1.569h-.966v-4.225h1.66a1.359,1.359,0,0,1,.574,2.559Zm-1.268-.718h.422c.242,0,.574.018.574-.513,0-.5-.272-.513-.543-.513h-.453Z" transform="translate(-518.631 -278.456)"/><path class="a" d="M534.167,278.464l1.152,4.255h-1.056l-.2-.845h-1.038l-.211.845h-1.056l1.171-4.255Zm-.942,2.6h.652l-.308-1.328h-.012Z" transform="translate(-522.166 -278.434)"/><path class="a" d="M543.506,282.742l-1.225-2.324h-.013v2.324H541.3v-4.225h1.056l1.226,2.324h.013v-2.324h.965v4.225Z" transform="translate(-526.246 -278.456)"/><path class="a" d="M552.46,281.55c0-.3-.248-.416-.694-.664a1.48,1.48,0,0,1-.965-1.358c0-.845.815-1.117,1.418-1.117a3.539,3.539,0,0,1,1.1.181v.815a3.708,3.708,0,0,0-1.068-.181c-.272,0-.483.12-.483.362,0,.272.224.381.664.6.737.368,1.026.755,1.026,1.3,0,.905-.664,1.268-1.509,1.268a4.276,4.276,0,0,1-1.207-.181v-.815a3.915,3.915,0,0,0,1.177.181C552.219,281.943,552.46,281.852,552.46,281.55Z" transform="translate(-530.28 -278.411)"/><path class="a" d="M561.855,279.332h-1.66v.906h1.419v.815h-1.419v1.69h-.966v-4.225h2.626Z" transform="translate(-533.909 -278.456)"/><path class="a" d="M570.692,280.584c0,1.207-.483,2.173-1.751,2.173s-1.751-.966-1.751-2.173c0-1.183.483-2.173,1.751-2.173S570.692,279.4,570.692,280.584Zm-2.505,0c0,.96.151,1.359.755,1.359s.755-.4.755-1.359c0-.936-.151-1.358-.755-1.358S568.187,279.649,568.187,280.584Z" transform="translate(-537.313 -278.411)"/><path class="a" d="M579.285,281.076l.935,1.666h-1.159l-.754-1.569h-.29v1.569h-.965v-4.225h1.66a1.359,1.359,0,0,1,.574,2.559Zm-1.268-.718h.423c.241,0,.574.018.574-.513,0-.5-.272-.513-.544-.513h-.453Z" transform="translate(-541.528 -278.456)"/><path class="a" d="M588.766,278.517h1.178v4.225h-.966V280.9h-.011l-.622,1.841H587.5l-.622-1.841h-.012v1.841H585.9v-4.225h1.177l.863,2.6h.012Z" transform="translate(-545.31 -278.456)"/><path class="a" d="M598.695,278.464l1.153,4.255h-1.056l-.2-.845h-1.038l-.211.845h-1.057l1.171-4.255Zm-.941,2.6h.651l-.308-1.328h-.011Z" transform="translate(-549.75 -278.434)"/><path class="a" d="M608.034,282.742l-1.226-2.324H606.8v2.324h-.966v-4.225h1.056l1.225,2.324h.013v-2.324h.965v4.225Z" transform="translate(-553.831 -278.456)"/></g><path class="a" d="M458.079,224.077h-3.173v2.085h2.719v1.2h-2.719v2.256h3.286v1.19h-4.681v-7.933h4.567Z" transform="translate(-14.033 -0.592)"/><path class="a" d="M463.411,221.6l1.281-.113h.113v8.726h-1.394Z" transform="translate(-18.265)"/><path class="a" d="M546.487,247.181l2.776-1.44V244.31a.5.5,0,0,0-.728-.442l-6.659,3.455a3.744,3.744,0,0,0-2.02,3.324v7.568H504.466v1.321h44.8v0h-4.8v-9.028a3.745,3.745,0,0,1,2.02-3.325" transform="translate(-35.816 -9.542)"/><path class="a" d="M595.648,250.205V222.485a.5.5,0,0,1,.728-.442l6.658,3.455a3.744,3.744,0,0,1,2.02,3.323v21.384Z" transform="translate(-74.796 -0.212)"/><path class="a" d="M428.937,243.793h-.045l-3.216-9.671h-4.385v15.742h3.6v-6.859h.045l2.316,6.859H430.4l2.316-6.859h.045v6.859h3.6V234.123h-4.385Z" transform="translate(-0.259 -5.4)"/><path class="a" d="M455.51,241.587a24.545,24.545,0,0,0-5.15.675v2.7a19.617,19.617,0,0,1,4.25-.676c1.349,0,1.574.676,1.552,1.349l-.023.675-3.081.449c-2.833.4-3.283,1.8-3.283,3.262,0,1.574.787,3.261,3.036,3.261A4.663,4.663,0,0,0,456,251.932h.045v1.124h3.6l.112-8.1c.023-2.249-1.776-3.374-4.25-3.374m.54,8.546a3.741,3.741,0,0,1-1.552.449c-.562,0-1.124-.2-1.214-.9-.09-.742.495-.922.989-1.013l1.822-.337Z" transform="translate(-12.436 -8.591)"/><path class="a" d="M473.608,243.161v-1.574h-.225l-3.373.224v11.245h3.6v-7.983a6.905,6.905,0,0,1,3.374-.563v-2.923a4.221,4.221,0,0,0-3.329,1.574Z" transform="translate(-21.086 -8.591)"/><path class="a" d="M494.05,241.7H492.7l-2.249,1.237a3.06,3.06,0,0,0-2.587-1.349c-3.036,0-4.5,3.037-4.5,5.959,0,2.812,1.237,5.735,4.385,5.735a3.168,3.168,0,0,0,2.654-1.35h.041v5.461c0,.01,0,.02,0,.03v.122h.017a1.427,1.427,0,0,0,.753,1.12l2.551,1.324a.191.191,0,0,0,.279-.169V249.182h0Zm-5.285,8.883c-1.237,0-1.687-1.124-1.687-3.036,0-2.024.449-3.261,1.687-3.261a2.591,2.591,0,0,1,1.687.562v4.334h0v.841a2.584,2.584,0,0,1-1.682.559" transform="translate(-26.797 -8.591)"/><path class="a" d="M462.351,269.521V269.4c0-.01,0-.021,0-.031v-.4H420.871a.184.184,0,0,0-.186.181v.958a.184.184,0,0,0,.186.182h41.82a1.458,1.458,0,0,1-.323-.771Z" transform="translate(0 -20.298)"/><path class="a" d="M511.978,250.188a5.211,5.211,0,0,1-2.137.562c-1.462,0-1.462-.673-1.462-1.8v-6.973h-3.6v8.1c0,1.8,1.012,3.373,3.6,3.373a5.363,5.363,0,0,0,3.553-1.349h.045v1.124h3.6V241.979h-3.6Z" transform="translate(-35.951 -8.759)"/><path class="a" d="M538.273,233.73h-3.508l-.99,3.6h1.912Z" transform="translate(-48.346 -5.232)"/><path class="a" d="M531.649,241.587c-3.936,0-5.848,2.136-5.848,6.072s2.024,5.623,5.4,5.623a13.083,13.083,0,0,0,4.273-.675v-2.7a11.309,11.309,0,0,1-3.485.673c-1.192,0-2.362-.291-2.474-2.585h6.365c.787-3.486-.18-6.41-4.228-6.41m1.079,4.16h-2.991a1.558,1.558,0,0,1,1.687-1.462c1.349,0,1.417.9,1.3,1.462" transform="translate(-44.937 -8.591)"/><path class="a" d="M550.394,245.747c-.855-.337-1.462-.495-1.462-1.012,0-.495.7-.562,1.124-.562a13.538,13.538,0,0,1,3.6.674v-2.7a12.638,12.638,0,0,0-3.6-.563c-2.249,0-4.61.787-4.61,3.374,0,2.135,1.889,2.946,3.148,3.486,1.417.606,2.249.674,2.249,1.462,0,.427-.247.787-1.349.787a16.909,16.909,0,0,1-4.048-.675v2.7a16.022,16.022,0,0,0,4.048.562c2.249,0,4.835-.675,4.835-3.824,0-2.136-2.047-2.968-3.936-3.71" transform="translate(-53.335 -8.591)"/><path class="a" d="M585.986,259.9v-14.74a.5.5,0,0,0-.728-.443l-6.659,3.456a3.745,3.745,0,0,0-2.02,3.324v8.4Z" transform="translate(-66.644 -9.904)"/></g></svg>