<?xml version="1.0" encoding="utf-8"?>
<!-- Generator: Adobe Illustrator 24.3.0, SVG Export Plug-In . SVG Version: 6.00 Build 0)  -->
<svg version="1.1" id="Capa_1" xmlns="http://www.w3.org/2000/svg" xmlns:xlink="http://www.w3.org/1999/xlink" x="0px" y="0px"
	 viewBox="0 0 400 300" style="enable-background:new 0 0 400 300;" xml:space="preserve">
<style type="text/css">
	.st0{fill:#D1D3D4;}
	.st1{fill:#FFFFFF;}
	.st2{fill:#231F20;}
	.st3{fill:#000B8C;}
	.st4{fill:#00ACD8;}
</style>
<g id="_158_data_maintenance_flatline">
	<path class="st0" d="M197.5,215.4c-0.3,0-0.5-0.2-0.5-0.4c0-0.3,0.2-0.5,0.4-0.6c0,0,3.9-0.6,5.9-9.6c2.1-9.6,0.1-116.1-0.5-121.2
		c-0.6-4.5-9.2-4.6-9.3-4.6c-0.3,0-0.5-0.2-0.5-0.5s0.2-0.5,0.5-0.5c0.4,0,9.6,0.1,10.3,5.4c0.6,5.2,2.6,111.9,0.5,121.6
		S197.8,215.4,197.5,215.4L197.5,215.4z"/>
	<path class="st0" d="M201.4,132.6c-0.1,0-0.2-0.1-0.3-0.1c-0.4-0.3-0.1-0.7,0.1-0.9c0,0,0.1-0.1,0.1-0.1l2.1-2.4
		c2.9-3.4,2.7-41.1,1.6-48.4c-0.6-4.3-1.9-5.8-2.8-6.3c-0.5-0.3-1-0.3-1.6-0.2c-0.3,0.1-0.5,0-0.7-0.3c-0.1-0.3,0-0.5,0.3-0.7
		c0.8-0.3,1.7-0.2,2.4,0.2c1.6,0.9,2.7,3.3,3.3,7c0.8,5.7,1.6,45.1-1.9,49.2c-1.1,1.3-1.8,2.1-2.2,2.5l0,0c0,0-0.1,0.1-0.1,0.2l0,0
		C201.6,132.5,201.5,132.6,201.4,132.6z"/>
	<path class="st0" d="M201.6,170.7c-0.3,0-0.5-0.2-0.5-0.5s0.2-0.5,0.5-0.5c0.2,0,4.9-0.6,6.6-6.3c1.8-6,1.8-46.5,0-64.7
		c-0.4-4.3-1.6-7-3.5-7.9c-1.3-0.5-2.7-0.4-3.9,0.2c-0.2,0.1-0.5,0.1-0.7-0.2c-0.1-0.2-0.1-0.5,0.2-0.7c0,0,0,0,0,0
		c1.5-0.9,3.3-1,4.9-0.3c2.2,1.1,3.6,4.1,4,8.7c1.8,18.2,1.8,59,0,65.1C208.2,167.3,205.3,170,201.6,170.7L201.6,170.7z"/>
	<path class="st0" d="M342.5,238.8h-0.1c-0.5-0.1-55.2-12.8-81.6-8.1c-27.2,4.8-39.9,5.9-47.7-0.1c-7.4-5.6-13.5-2.6-13.7-2.5
		c-0.2,0.1-0.5,0-0.7-0.2c0,0,0,0,0,0c-0.1-0.2,0-0.5,0.2-0.7c0.3-0.1,6.9-3.4,14.8,2.6c7.5,5.7,20.6,4.6,46.9-0.1
		c26.6-4.7,81.5,7.9,82,8.1c0.3,0.1,0.4,0.3,0.4,0.6C342.9,238.7,342.7,238.8,342.5,238.8z"/>
	<path class="st0" d="M342.5,242.9h-285c-0.3,0-0.5-0.2-0.5-0.5s0.2-0.5,0.5-0.5h285c0.3,0,0.5,0.2,0.5,0.5S342.8,242.9,342.5,242.9
		z"/>
	<rect x="80.3" y="52.7" class="st1" width="118.8" height="185.6"/>
	<path class="st2" d="M199.1,238.8H80.3c-0.3,0-0.5-0.2-0.5-0.5V52.8c0-0.3,0.2-0.5,0.5-0.5h118.8c0.3,0,0.5,0.2,0.5,0.5v185.6
		C199.6,238.6,199.4,238.8,199.1,238.8z M80.8,237.8h117.8V53.2H80.8L80.8,237.8z"/>
	<rect x="91.4" y="70.1" class="st1" width="96.7" height="20.1"/>
	<path class="st2" d="M188.1,90.6H91.4c-0.3,0-0.5-0.2-0.5-0.5V70.1c0-0.3,0.2-0.5,0.5-0.5h96.7c0.3,0,0.5,0.2,0.5,0.5v20.1
		C188.6,90.4,188.3,90.6,188.1,90.6z M91.9,89.6h95.7V70.6H91.9V89.6z"/>
	<path class="st0" d="M139.7,76.9h-2.5c-0.3,0-0.5-0.2-0.5-0.5s0.2-0.5,0.5-0.5h2.5c0.3,0,0.5,0.2,0.5,0.5S140,76.9,139.7,76.9z"/>
	<path class="st0" d="M139.7,84.3h-2.5c-0.3,0-0.5-0.2-0.5-0.5s0.2-0.5,0.5-0.5h2.5c0.3,0,0.5,0.2,0.5,0.5S140,84.3,139.7,84.3z"/>
	<path class="st0" d="M147.9,76.9h-2.5c-0.3,0-0.5-0.2-0.5-0.5s0.2-0.5,0.5-0.5h2.5c0.3,0,0.5,0.2,0.5,0.5S148.1,76.9,147.9,76.9z"
		/>
	<path class="st0" d="M147.9,84.3h-2.5c-0.3,0-0.5-0.2-0.5-0.5s0.2-0.5,0.5-0.5h2.5c0.3,0,0.5,0.2,0.5,0.5S148.1,84.3,147.9,84.3z"
		/>
	<path class="st0" d="M156,76.9h-2.5c-0.3,0-0.5-0.2-0.5-0.5s0.2-0.5,0.5-0.5h2.5c0.3,0,0.5,0.2,0.5,0.5S156.3,76.9,156,76.9z"/>
	<path class="st0" d="M156,84.3h-2.5c-0.3,0-0.5-0.2-0.5-0.5s0.2-0.5,0.5-0.5h2.5c0.3,0,0.5,0.2,0.5,0.5S156.3,84.3,156,84.3z"/>
	<path class="st0" d="M164.2,76.9h-2.5c-0.3,0-0.5-0.2-0.5-0.5s0.2-0.5,0.5-0.5h2.5c0.3,0,0.5,0.2,0.5,0.5S164.4,76.9,164.2,76.9z"
		/>
	<path class="st0" d="M164.2,84.3h-2.5c-0.3,0-0.5-0.2-0.5-0.5c0-0.3,0.2-0.5,0.5-0.5h2.5c0.3,0,0.5,0.2,0.5,0.5
		C164.7,84,164.4,84.3,164.2,84.3z"/>
	<path class="st0" d="M172.3,76.9h-2.5c-0.3,0-0.5-0.2-0.5-0.5s0.2-0.5,0.5-0.5h2.5c0.3,0,0.5,0.2,0.5,0.5S172.6,76.9,172.3,76.9z"
		/>
	<path class="st0" d="M172.3,84.3h-2.5c-0.3,0-0.5-0.2-0.5-0.5c0-0.3,0.2-0.5,0.5-0.5h2.5c0.3,0,0.5,0.2,0.5,0.5
		C172.8,84,172.6,84.3,172.3,84.3z"/>
	<path class="st0" d="M180.5,76.9H178c-0.3,0-0.5-0.2-0.5-0.5s0.2-0.5,0.5-0.5h2.5c0.3,0,0.5,0.2,0.5,0.5S180.8,76.9,180.5,76.9
		L180.5,76.9z"/>
	<path class="st0" d="M180.5,84.3H178c-0.3,0-0.5-0.2-0.5-0.5s0.2-0.5,0.5-0.5h2.5c0.3,0,0.5,0.2,0.5,0.5
		C181,84,180.8,84.3,180.5,84.3C180.5,84.3,180.5,84.3,180.5,84.3z"/>
	<rect x="97.3" y="76.4" class="st3" width="30.3" height="7.4"/>
	<path class="st3" d="M127.7,84.3H97.3c-0.3,0-0.5-0.2-0.5-0.5v-7.4c0-0.3,0.2-0.5,0.5-0.5h30.3c0.3,0,0.5,0.2,0.5,0.5v7.4
		C128.1,84,127.9,84.3,127.7,84.3z M97.8,83.3h29.3v-6.4H97.8V83.3z"/>
	<circle class="st1" cx="101.8" cy="80.2" r="1.9"/>
	<circle class="st4" cx="107.8" cy="80.2" r="1.9"/>
	<rect x="91.4" y="95.1" class="st1" width="96.7" height="20.1"/>
	<path class="st2" d="M188.1,115.6H91.4c-0.3,0-0.5-0.2-0.5-0.5V95.1c0-0.3,0.2-0.5,0.5-0.5h96.7c0.3,0,0.5,0.2,0.5,0.5v20.1
		C188.6,115.4,188.3,115.6,188.1,115.6z M91.9,114.6h95.7V95.6H91.9V114.6z"/>
	<path class="st0" d="M139.7,101.9h-2.5c-0.3,0-0.5-0.2-0.5-0.5s0.2-0.5,0.5-0.5h2.5c0.3,0,0.5,0.2,0.5,0.5S140,101.9,139.7,101.9z"
		/>
	<path class="st0" d="M139.7,109.3h-2.5c-0.3,0-0.5-0.2-0.5-0.5s0.2-0.5,0.5-0.5h2.5c0.3,0,0.5,0.2,0.5,0.5S140,109.3,139.7,109.3z"
		/>
	<path class="st0" d="M147.9,101.9h-2.5c-0.3,0-0.5-0.2-0.5-0.5s0.2-0.5,0.5-0.5h2.5c0.3,0,0.5,0.2,0.5,0.5S148.1,101.9,147.9,101.9
		z"/>
	<path class="st0" d="M147.9,109.3h-2.5c-0.3,0-0.5-0.2-0.5-0.5s0.2-0.5,0.5-0.5h2.5c0.3,0,0.5,0.2,0.5,0.5S148.1,109.3,147.9,109.3
		z"/>
	<path class="st0" d="M156,101.9h-2.5c-0.3,0-0.5-0.2-0.5-0.5s0.2-0.5,0.5-0.5h2.5c0.3,0,0.5,0.2,0.5,0.5S156.3,101.9,156,101.9z"/>
	<path class="st0" d="M156,109.3h-2.5c-0.3,0-0.5-0.2-0.5-0.5s0.2-0.5,0.5-0.5h2.5c0.3,0,0.5,0.2,0.5,0.5S156.3,109.3,156,109.3z"/>
	<path class="st0" d="M164.2,101.9h-2.5c-0.3,0-0.5-0.2-0.5-0.5c0-0.3,0.2-0.5,0.5-0.5h2.5c0.3,0,0.5,0.2,0.5,0.5
		C164.7,101.7,164.4,101.9,164.2,101.9z"/>
	<path class="st0" d="M164.2,109.3h-2.5c-0.3,0-0.5-0.2-0.5-0.5c0-0.3,0.2-0.5,0.5-0.5h2.5c0.3,0,0.5,0.2,0.5,0.5
		C164.7,109.1,164.4,109.3,164.2,109.3z"/>
	<path class="st0" d="M172.3,101.9h-2.5c-0.3,0-0.5-0.2-0.5-0.5c0-0.3,0.2-0.5,0.5-0.5h2.5c0.3,0,0.5,0.2,0.5,0.5
		C172.8,101.7,172.6,101.9,172.3,101.9z"/>
	<path class="st0" d="M172.3,109.3h-2.5c-0.3,0-0.5-0.2-0.5-0.5c0-0.3,0.2-0.5,0.5-0.5h2.5c0.3,0,0.5,0.2,0.5,0.5
		C172.8,109.1,172.6,109.3,172.3,109.3z"/>
	<path class="st0" d="M180.5,101.9H178c-0.3,0-0.5-0.2-0.5-0.5s0.2-0.5,0.5-0.5h2.5c0.3,0,0.5,0.2,0.5,0.5
		C181,101.7,180.8,101.9,180.5,101.9C180.5,101.9,180.5,101.9,180.5,101.9z"/>
	<path class="st0" d="M180.5,109.3H178c-0.3,0-0.5-0.2-0.5-0.5s0.2-0.5,0.5-0.5h2.5c0.3,0,0.5,0.2,0.5,0.5
		C181,109.1,180.8,109.3,180.5,109.3C180.5,109.3,180.5,109.3,180.5,109.3z"/>
	<rect x="97.3" y="101.4" class="st3" width="30.3" height="7.4"/>
	<path class="st3" d="M127.7,109.3H97.3c-0.3,0-0.5-0.2-0.5-0.5v-7.4c0-0.3,0.2-0.5,0.5-0.5h30.3c0.3,0,0.5,0.2,0.5,0.5v7.4
		C128.1,109.1,127.9,109.3,127.7,109.3z M97.8,108.3h29.3v-6.4H97.8V108.3z"/>
	<circle class="st1" cx="101.8" cy="105.2" r="1.9"/>
	<circle class="st4" cx="107.8" cy="105.2" r="1.9"/>
	<rect x="91.4" y="120.1" class="st1" width="96.7" height="20.1"/>
	<path class="st2" d="M188.1,140.7H91.4c-0.3,0-0.5-0.2-0.5-0.5v-20.1c0-0.3,0.2-0.5,0.5-0.5h96.7c0.3,0,0.5,0.2,0.5,0.5v20.1
		C188.6,140.4,188.3,140.7,188.1,140.7z M91.9,139.7h95.7v-19.1H91.9V139.7z"/>
	<path class="st0" d="M139.7,126.9h-2.5c-0.3,0-0.5-0.2-0.5-0.5s0.2-0.5,0.5-0.5h2.5c0.3,0,0.5,0.2,0.5,0.5S140,126.9,139.7,126.9z"
		/>
	<path class="st0" d="M139.7,134.3h-2.5c-0.3,0-0.5-0.2-0.5-0.5s0.2-0.5,0.5-0.5h2.5c0.3,0,0.5,0.2,0.5,0.5S140,134.3,139.7,134.3z"
		/>
	<path class="st0" d="M147.9,126.9h-2.5c-0.3,0-0.5-0.2-0.5-0.5s0.2-0.5,0.5-0.5h2.5c0.3,0,0.5,0.2,0.5,0.5S148.1,126.9,147.9,126.9
		z"/>
	<path class="st0" d="M147.9,134.3h-2.5c-0.3,0-0.5-0.2-0.5-0.5s0.2-0.5,0.5-0.5h2.5c0.3,0,0.5,0.2,0.5,0.5S148.1,134.3,147.9,134.3
		z"/>
	<path class="st0" d="M156,126.9h-2.5c-0.3,0-0.5-0.2-0.5-0.5s0.2-0.5,0.5-0.5h2.5c0.3,0,0.5,0.2,0.5,0.5S156.3,126.9,156,126.9z"/>
	<path class="st0" d="M156,134.3h-2.5c-0.3,0-0.5-0.2-0.5-0.5s0.2-0.5,0.5-0.5h2.5c0.3,0,0.5,0.2,0.5,0.5S156.3,134.3,156,134.3z"/>
	<path class="st0" d="M164.2,126.9h-2.5c-0.3,0-0.5-0.2-0.5-0.5c0-0.3,0.2-0.5,0.5-0.5h2.5c0.3,0,0.5,0.2,0.5,0.5
		C164.7,126.7,164.4,126.9,164.2,126.9z"/>
	<path class="st0" d="M164.2,134.3h-2.5c-0.3,0-0.5-0.2-0.5-0.5s0.2-0.5,0.5-0.5h2.5c0.3,0,0.5,0.2,0.5,0.5S164.4,134.3,164.2,134.3
		z"/>
	<path class="st0" d="M172.3,126.9h-2.5c-0.3,0-0.5-0.2-0.5-0.5c0-0.3,0.2-0.5,0.5-0.5h2.5c0.3,0,0.5,0.2,0.5,0.5
		C172.8,126.7,172.6,126.9,172.3,126.9z"/>
	<path class="st0" d="M172.3,134.3h-2.5c-0.3,0-0.5-0.2-0.5-0.5s0.2-0.5,0.5-0.5h2.5c0.3,0,0.5,0.2,0.5,0.5S172.6,134.3,172.3,134.3
		z"/>
	<path class="st0" d="M180.5,126.9H178c-0.3,0-0.5-0.2-0.5-0.5s0.2-0.5,0.5-0.5h2.5c0.3,0,0.5,0.2,0.5,0.5
		C181,126.7,180.8,126.9,180.5,126.9C180.5,126.9,180.5,126.9,180.5,126.9z"/>
	<path class="st0" d="M180.5,134.3H178c-0.3,0-0.5-0.2-0.5-0.5s0.2-0.5,0.5-0.5h2.5c0.3,0,0.5,0.2,0.5,0.5S180.8,134.3,180.5,134.3
		L180.5,134.3z"/>
	<rect x="97.3" y="126.4" class="st3" width="30.3" height="7.4"/>
	<path class="st3" d="M127.7,134.3H97.3c-0.3,0-0.5-0.2-0.5-0.5v-7.4c0-0.3,0.2-0.5,0.5-0.5h30.3c0.3,0,0.5,0.2,0.5,0.5v7.4
		C128.1,134.1,127.9,134.3,127.7,134.3z M97.8,133.3h29.3v-6.4H97.8V133.3z"/>
	<circle class="st1" cx="101.8" cy="130.2" r="1.9"/>
	<circle class="st4" cx="107.8" cy="130.2" r="1.9"/>
	<rect x="91.4" y="145.1" class="st1" width="96.7" height="20.1"/>
	<path class="st2" d="M188.1,165.7H91.4c-0.3,0-0.5-0.2-0.5-0.5v-20.1c0-0.3,0.2-0.5,0.5-0.5h96.7c0.3,0,0.5,0.2,0.5,0.5v20.1
		C188.6,165.5,188.3,165.7,188.1,165.7z M91.9,164.7h95.7v-19.1H91.9V164.7z"/>
	<path class="st0" d="M139.7,152h-2.5c-0.3,0-0.5-0.2-0.5-0.5s0.2-0.5,0.5-0.5h2.5c0.3,0,0.5,0.2,0.5,0.5S140,152,139.7,152z"/>
	<path class="st0" d="M139.7,159.3h-2.5c-0.3,0-0.5-0.2-0.5-0.5s0.2-0.5,0.5-0.5h2.5c0.3,0,0.5,0.2,0.5,0.5S140,159.3,139.7,159.3z"
		/>
	<path class="st0" d="M147.9,152h-2.5c-0.3,0-0.5-0.2-0.5-0.5s0.2-0.5,0.5-0.5h2.5c0.3,0,0.5,0.2,0.5,0.5S148.1,152,147.9,152z"/>
	<path class="st0" d="M147.9,159.3h-2.5c-0.3,0-0.5-0.2-0.5-0.5s0.2-0.5,0.5-0.5h2.5c0.3,0,0.5,0.2,0.5,0.5S148.1,159.3,147.9,159.3
		z"/>
	<path class="st0" d="M156,152h-2.5c-0.3,0-0.5-0.2-0.5-0.5s0.2-0.5,0.5-0.5h2.5c0.3,0,0.5,0.2,0.5,0.5S156.3,152,156,152z"/>
	<path class="st0" d="M156,159.3h-2.5c-0.3,0-0.5-0.2-0.5-0.5s0.2-0.5,0.5-0.5h2.5c0.3,0,0.5,0.2,0.5,0.5S156.3,159.3,156,159.3z"/>
	<path class="st0" d="M164.2,152h-2.5c-0.3,0-0.5-0.2-0.5-0.5c0-0.3,0.2-0.5,0.5-0.5h2.5c0.3,0,0.5,0.2,0.5,0.5
		C164.7,151.8,164.4,152,164.2,152z"/>
	<path class="st0" d="M164.2,159.3h-2.5c-0.3,0-0.5-0.2-0.5-0.5c0-0.3,0.2-0.5,0.5-0.5h2.5c0.3,0,0.5,0.2,0.5,0.5
		C164.7,159.1,164.4,159.3,164.2,159.3z"/>
	<path class="st0" d="M172.3,152h-2.5c-0.3,0-0.5-0.2-0.5-0.5c0-0.3,0.2-0.5,0.5-0.5h2.5c0.3,0,0.5,0.2,0.5,0.5
		C172.8,151.8,172.6,152,172.3,152z"/>
	<path class="st0" d="M172.3,159.3h-2.5c-0.3,0-0.5-0.2-0.5-0.5c0-0.3,0.2-0.5,0.5-0.5h2.5c0.3,0,0.5,0.2,0.5,0.5
		C172.8,159.1,172.6,159.3,172.3,159.3z"/>
	<path class="st0" d="M180.5,152H178c-0.3,0-0.5-0.2-0.5-0.5s0.2-0.5,0.5-0.5h2.5c0.3,0,0.5,0.2,0.5,0.5
		C181,151.8,180.8,152,180.5,152C180.5,152,180.5,152,180.5,152z"/>
	<path class="st0" d="M180.5,159.3H178c-0.3,0-0.5-0.2-0.5-0.5s0.2-0.5,0.5-0.5h2.5c0.3,0,0.5,0.2,0.5,0.5
		C181,159.1,180.8,159.3,180.5,159.3C180.5,159.3,180.5,159.3,180.5,159.3z"/>
	<rect x="97.3" y="151.5" class="st3" width="30.3" height="7.4"/>
	<path class="st3" d="M127.7,159.3H97.3c-0.3,0-0.5-0.2-0.5-0.5v-7.4c0-0.3,0.2-0.5,0.5-0.5h30.3c0.3,0,0.5,0.2,0.5,0.5v7.4
		C128.1,159.1,127.9,159.3,127.7,159.3z M97.8,158.3h29.3V152H97.8V158.3z"/>
	<circle class="st1" cx="101.8" cy="155.2" r="1.9"/>
	<circle class="st4" cx="107.8" cy="155.2" r="1.9"/>
	<rect x="91.4" y="170.1" class="st1" width="96.7" height="20.1"/>
	<path class="st2" d="M188.1,190.7H91.4c-0.3,0-0.5-0.2-0.5-0.5v-20.1c0-0.3,0.2-0.5,0.5-0.5h96.7c0.3,0,0.5,0.2,0.5,0.5v20.1
		C188.6,190.5,188.3,190.7,188.1,190.7L188.1,190.7z M91.9,189.7h95.7v-19.1H91.9V189.7z"/>
	<path class="st0" d="M139.7,177h-2.5c-0.3,0-0.5-0.2-0.5-0.5s0.2-0.5,0.5-0.5h2.5c0.3,0,0.5,0.2,0.5,0.5S140,177,139.7,177z"/>
	<path class="st0" d="M139.7,184.4h-2.5c-0.3,0-0.5-0.2-0.5-0.5s0.2-0.5,0.5-0.5h2.5c0.3,0,0.5,0.2,0.5,0.5S140,184.4,139.7,184.4z"
		/>
	<path class="st0" d="M147.9,177h-2.5c-0.3,0-0.5-0.2-0.5-0.5s0.2-0.5,0.5-0.5h2.5c0.3,0,0.5,0.2,0.5,0.5S148.1,177,147.9,177z"/>
	<path class="st0" d="M147.9,184.4h-2.5c-0.3,0-0.5-0.2-0.5-0.5s0.2-0.5,0.5-0.5h2.5c0.3,0,0.5,0.2,0.5,0.5S148.1,184.4,147.9,184.4
		z"/>
	<path class="st0" d="M156,177h-2.5c-0.3,0-0.5-0.2-0.5-0.5s0.2-0.5,0.5-0.5h2.5c0.3,0,0.5,0.2,0.5,0.5S156.3,177,156,177z"/>
	<path class="st0" d="M156,184.4h-2.5c-0.3,0-0.5-0.2-0.5-0.5s0.2-0.5,0.5-0.5h2.5c0.3,0,0.5,0.2,0.5,0.5S156.3,184.4,156,184.4z"/>
	<path class="st0" d="M164.2,177h-2.5c-0.3,0-0.5-0.2-0.5-0.5c0-0.3,0.2-0.5,0.5-0.5h2.5c0.3,0,0.5,0.2,0.5,0.5
		C164.7,176.8,164.4,177,164.2,177z"/>
	<path class="st0" d="M164.2,184.4h-2.5c-0.3,0-0.5-0.2-0.5-0.5s0.2-0.5,0.5-0.5h2.5c0.3,0,0.5,0.2,0.5,0.5S164.4,184.4,164.2,184.4
		z"/>
	<path class="st0" d="M172.3,177h-2.5c-0.3,0-0.5-0.2-0.5-0.5c0-0.3,0.2-0.5,0.5-0.5h2.5c0.3,0,0.5,0.2,0.5,0.5
		C172.8,176.8,172.6,177,172.3,177z"/>
	<path class="st0" d="M172.3,184.4h-2.5c-0.3,0-0.5-0.2-0.5-0.5s0.2-0.5,0.5-0.5h2.5c0.3,0,0.5,0.2,0.5,0.5S172.6,184.4,172.3,184.4
		z"/>
	<path class="st0" d="M180.5,177H178c-0.3,0-0.5-0.2-0.5-0.5s0.2-0.5,0.5-0.5h2.5c0.3,0,0.5,0.2,0.5,0.5
		C181,176.8,180.8,177,180.5,177C180.5,177,180.5,177,180.5,177z"/>
	<path class="st0" d="M180.5,184.4H178c-0.3,0-0.5-0.2-0.5-0.5s0.2-0.5,0.5-0.5h2.5c0.3,0,0.5,0.2,0.5,0.5S180.8,184.4,180.5,184.4
		L180.5,184.4z"/>
	<rect x="97.3" y="176.5" class="st3" width="30.3" height="7.4"/>
	<path class="st3" d="M127.7,184.4H97.3c-0.3,0-0.5-0.2-0.5-0.5v-7.4c0-0.3,0.2-0.5,0.5-0.5h30.3c0.3,0,0.5,0.2,0.5,0.5v7.4
		C128.1,184.1,127.9,184.4,127.7,184.4z M97.8,183.4h29.3V177H97.8V183.4z"/>
	<circle class="st1" cx="101.8" cy="180.3" r="1.9"/>
	<circle class="st4" cx="107.8" cy="180.3" r="1.9"/>
	<rect x="91.4" y="195.2" class="st1" width="96.7" height="20.1"/>
	<path class="st2" d="M188.1,215.7H91.4c-0.3,0-0.5-0.2-0.5-0.5v-20.1c0-0.3,0.2-0.5,0.5-0.5h96.7c0.3,0,0.5,0.2,0.5,0.5v20.1
		C188.6,215.5,188.3,215.7,188.1,215.7z M91.9,214.7h95.7v-19.1H91.9V214.7z"/>
	<path class="st0" d="M139.7,202h-2.5c-0.3,0-0.5-0.2-0.5-0.5s0.2-0.5,0.5-0.5h2.5c0.3,0,0.5,0.2,0.5,0.5S140,202,139.7,202z"/>
	<path class="st0" d="M139.7,209.4h-2.5c-0.3,0-0.5-0.2-0.5-0.5s0.2-0.5,0.5-0.5h2.5c0.3,0,0.5,0.2,0.5,0.5S140,209.4,139.7,209.4z"
		/>
	<path class="st0" d="M147.9,202h-2.5c-0.3,0-0.5-0.2-0.5-0.5s0.2-0.5,0.5-0.5h2.5c0.3,0,0.5,0.2,0.5,0.5S148.1,202,147.9,202z"/>
	<path class="st0" d="M147.9,209.4h-2.5c-0.3,0-0.5-0.2-0.5-0.5s0.2-0.5,0.5-0.5h2.5c0.3,0,0.5,0.2,0.5,0.5S148.1,209.4,147.9,209.4
		z"/>
	<path class="st0" d="M156,202h-2.5c-0.3,0-0.5-0.2-0.5-0.5s0.2-0.5,0.5-0.5h2.5c0.3,0,0.5,0.2,0.5,0.5S156.3,202,156,202z"/>
	<path class="st0" d="M156,209.4h-2.5c-0.3,0-0.5-0.2-0.5-0.5s0.2-0.5,0.5-0.5h2.5c0.3,0,0.5,0.2,0.5,0.5S156.3,209.4,156,209.4z"/>
	<path class="st0" d="M164.2,202h-2.5c-0.3,0-0.5-0.2-0.5-0.5s0.2-0.5,0.5-0.5h2.5c0.3,0,0.5,0.2,0.5,0.5S164.4,202,164.2,202z"/>
	<path class="st0" d="M164.2,209.4h-2.5c-0.3,0-0.5-0.2-0.5-0.5c0-0.3,0.2-0.5,0.5-0.5h2.5c0.3,0,0.5,0.2,0.5,0.5
		C164.7,209.2,164.4,209.4,164.2,209.4z"/>
	<path class="st0" d="M172.3,202h-2.5c-0.3,0-0.5-0.2-0.5-0.5s0.2-0.5,0.5-0.5h2.5c0.3,0,0.5,0.2,0.5,0.5S172.6,202,172.3,202z"/>
	<path class="st0" d="M172.3,209.4h-2.5c-0.3,0-0.5-0.2-0.5-0.5c0-0.3,0.2-0.5,0.5-0.5h2.5c0.3,0,0.5,0.2,0.5,0.5
		C172.8,209.2,172.6,209.4,172.3,209.4z"/>
	<path class="st0" d="M180.5,202H178c-0.3,0-0.5-0.2-0.5-0.5s0.2-0.5,0.5-0.5h2.5c0.3,0,0.5,0.2,0.5,0.5S180.8,202,180.5,202
		L180.5,202z"/>
	<path class="st0" d="M180.5,209.4H178c-0.3,0-0.5-0.2-0.5-0.5s0.2-0.5,0.5-0.5h2.5c0.3,0,0.5,0.2,0.5,0.5
		C181,209.2,180.8,209.4,180.5,209.4C180.5,209.4,180.5,209.4,180.5,209.4z"/>
	<rect x="97.3" y="201.5" class="st3" width="30.3" height="7.4"/>
	<path class="st3" d="M127.7,209.4H97.3c-0.3,0-0.5-0.2-0.5-0.5v-7.4c0-0.3,0.2-0.5,0.5-0.5h30.3c0.3,0,0.5,0.2,0.5,0.5v7.4
		C128.1,209.2,127.9,209.4,127.7,209.4z M97.8,208.4h29.3V202H97.8V208.4z"/>
	<circle class="st1" cx="101.8" cy="205.3" r="1.9"/>
	<circle class="st4" cx="107.8" cy="205.3" r="1.9"/>
	<rect x="237" y="159.5" class="st1" width="11.3" height="87.8"/>
	<path class="st2" d="M248.3,247.8H237c-0.3,0-0.5-0.2-0.5-0.5v-87.8c0-0.3,0.2-0.5,0.5-0.5h11.3c0.3,0,0.5,0.2,0.5,0.5v87.8
		C248.8,247.5,248.6,247.7,248.3,247.8z M237.5,246.8h10.3V160h-10.3L237.5,246.8z"/>
	<rect x="306.3" y="159.5" class="st1" width="11.3" height="87.8"/>
	<path class="st2" d="M317.6,247.8h-11.3c-0.3,0-0.5-0.2-0.5-0.5v-87.8c0-0.3,0.2-0.5,0.5-0.5h11.3c0.3,0,0.5,0.2,0.5,0.5v87.8
		C318.1,247.5,317.9,247.8,317.6,247.8z M306.8,246.8h10.3V160h-10.3V246.8z"/>
	<rect x="226" y="166.1" class="st1" width="100.4" height="30.1"/>
	<path class="st2" d="M326.4,196.7H226c-0.3,0-0.5-0.2-0.5-0.5v-30.1c0-0.3,0.2-0.5,0.5-0.5h100.4c0.3,0,0.5,0.2,0.5,0.5v30.1
		C326.9,196.5,326.7,196.7,326.4,196.7z M226.5,195.7h99.4v-29.1h-99.4V195.7z"/>
	<polygon class="st2" points="262.3,196.2 246.9,196.2 227.8,166.1 243.2,166.1 	"/>
	<path class="st2" d="M262.3,196.7h-15.4c-0.2,0-0.3-0.1-0.4-0.2l-19-30.1c-0.1-0.2-0.1-0.4,0-0.5c0.1-0.2,0.3-0.3,0.4-0.2h15.4
		c0.2,0,0.3,0.1,0.4,0.2l19,30.1c0.1,0.2,0.1,0.3,0,0.5C262.6,196.6,262.4,196.7,262.3,196.7z M247.1,195.7h14.2L243,166.6h-14.3
		L247.1,195.7z"/>
	<polygon class="st2" points="293.4,196.2 278,196.2 259,166.1 274.4,166.1 	"/>
	<path class="st2" d="M293.4,196.7H278c-0.2,0-0.3-0.1-0.4-0.2l-19-30.1c-0.1-0.2-0.1-0.4,0-0.5c0.1-0.2,0.3-0.3,0.4-0.2h15.4
		c0.2,0,0.3,0.1,0.4,0.2l19,30.1c0.1,0.2,0.1,0.5-0.2,0.7C293.6,196.7,293.5,196.7,293.4,196.7L293.4,196.7z M278.3,195.7h14.2
		l-18.4-29.1h-14.2L278.3,195.7z"/>
	<polygon class="st2" points="324.5,196.2 309.1,196.2 290.1,166.1 305.5,166.1 	"/>
	<path class="st2" d="M324.5,196.7h-15.4c-0.2,0-0.3-0.1-0.4-0.2l-19-30.1c-0.1-0.2-0.1-0.4,0-0.5c0.1-0.2,0.3-0.3,0.4-0.2h15.4
		c0.2,0,0.3,0.1,0.4,0.2l19,30.1c0.1,0.2,0.1,0.3,0,0.5C324.9,196.6,324.7,196.7,324.5,196.7z M309.4,195.7h14.2l-18.4-29.1H291
		L309.4,195.7z"/>
	<rect x="226" y="208.2" class="st1" width="98.6" height="9.7"/>
	<path class="st2" d="M324.5,218.4H226c-0.3,0-0.5-0.2-0.5-0.5v-9.8c0-0.3,0.2-0.5,0.5-0.5h98.6c0.3,0,0.5,0.2,0.5,0.5v9.8
		C325.1,218.2,324.8,218.4,324.5,218.4C324.6,218.4,324.6,218.4,324.5,218.4z M226.5,217.4H324v-8.8h-97.6L226.5,217.4z"/>
	<rect x="227.8" y="69" class="st1" width="96.7" height="59.3"/>
	<path class="st0" d="M324.5,128.8h-96.7c-0.3,0-0.5-0.2-0.5-0.5V69c0-0.3,0.2-0.5,0.5-0.5h96.7c0.3,0,0.5,0.2,0.5,0.5v59.3
		C325.1,128.6,324.8,128.8,324.5,128.8C324.6,128.8,324.6,128.8,324.5,128.8z M228.3,127.8H324V69.5h-95.7L228.3,127.8z"/>
	<rect x="86.4" y="238.3" class="st2" width="106.6" height="4.1"/>
	<path class="st2" d="M193,242.9H86.4c-0.3,0-0.5-0.2-0.5-0.5v-4.1c0-0.3,0.2-0.5,0.5-0.5H193c0.3,0,0.5,0.2,0.5,0.5v4.1
		C193.5,242.7,193.3,242.9,193,242.9z M86.9,241.9h105.7v-3.1H86.9L86.9,241.9z"/>
	<g>
		<path d="M273.8,90.9h-2.7v2.3h3.2v1.4h-4.9V86h4.9v1.4h-3.2v2h2.7V90.9z"/>
		<path d="M281.2,94.6h-1.7L277,89v5.6h-1.7V86h1.7l2.5,5.6V86h1.7V94.6z"/>
		<path d="M242,106.1c0,1-0.3,1.7-0.8,2.2s-1.2,0.8-2.1,0.8c-1,0-1.7-0.3-2.2-1s-0.8-1.5-0.8-2.7V104c0-1.2,0.3-2.1,0.8-2.7
			s1.3-1,2.2-1c0.9,0,1.6,0.3,2.1,0.8s0.8,1.3,0.8,2.2h-1.7c0-0.6-0.1-1-0.3-1.2s-0.5-0.3-0.9-0.3c-0.5,0-0.8,0.2-1,0.5
			s-0.3,0.9-0.3,1.6v1.6c0,0.8,0.1,1.4,0.3,1.7s0.5,0.5,1,0.5c0.5,0,0.8-0.1,0.9-0.3s0.3-0.6,0.3-1.2H242z"/>
		<path d="M249.1,105.5c0,1.1-0.3,2-0.8,2.7s-1.3,0.9-2.3,0.9c-1,0-1.7-0.3-2.3-0.9s-0.8-1.5-0.8-2.6v-1.5c0-1.2,0.3-2.1,0.8-2.7
			s1.3-1,2.3-1c0.9,0,1.7,0.3,2.2,1s0.8,1.6,0.8,2.7V105.5z M247.4,104c0-0.8-0.1-1.3-0.3-1.7s-0.6-0.6-1-0.6c-0.5,0-0.8,0.2-1,0.5
			s-0.3,0.9-0.3,1.6v1.5c0,0.7,0.1,1.3,0.3,1.6s0.6,0.5,1,0.5c0.4,0,0.8-0.2,1-0.5s0.3-0.9,0.3-1.6V104z"/>
		<path d="M256.3,109h-1.7l-2.5-5.6v5.6h-1.7v-8.5h1.7l2.5,5.6v-5.6h1.7V109z"/>
		<path d="M261.3,106.7c0-0.3-0.1-0.6-0.3-0.8s-0.5-0.4-1-0.6c-0.9-0.3-1.5-0.7-1.8-1.1s-0.6-1-0.6-1.5c0-0.7,0.3-1.3,0.8-1.7
			s1.2-0.7,1.9-0.7c0.5,0,1,0.1,1.4,0.3s0.7,0.5,0.9,0.9s0.3,0.9,0.3,1.4h-1.7c0-0.4-0.1-0.7-0.3-0.9s-0.4-0.3-0.7-0.3
			c-0.3,0-0.5,0.1-0.7,0.3s-0.3,0.4-0.3,0.7c0,0.2,0.1,0.4,0.3,0.6s0.5,0.4,1,0.6c0.8,0.3,1.4,0.7,1.8,1.1s0.6,1,0.6,1.7
			c0,0.7-0.2,1.3-0.7,1.7s-1.1,0.6-1.9,0.6c-0.6,0-1.1-0.1-1.5-0.3s-0.8-0.6-1.1-1s-0.4-0.9-0.4-1.5h1.7c0,0.5,0.1,0.8,0.3,1.1
			s0.5,0.3,0.9,0.3C261,107.7,261.3,107.4,261.3,106.7z"/>
		<path d="M269.7,101.9h-2.1v7.1h-1.7v-7.1h-2.1v-1.4h5.9V101.9z"/>
		<path d="M273.3,105.9h-0.9v3.1h-1.7v-8.5h2.7c0.9,0,1.5,0.2,2,0.7s0.7,1.1,0.7,1.9c0,1.1-0.4,1.9-1.2,2.4l1.5,3.5v0.1h-1.9
			L273.3,105.9z M272.4,104.4h1c0.3,0,0.6-0.1,0.8-0.3s0.3-0.5,0.3-0.9c0-0.9-0.3-1.3-1-1.3h-1V104.4z"/>
		<path d="M282.9,100.4v5.9c0,0.9-0.3,1.6-0.7,2s-1.2,0.7-2.1,0.7c-0.9,0-1.6-0.2-2.1-0.7s-0.7-1.2-0.7-2.1v-5.9h1.7v5.9
			c0,0.5,0.1,0.8,0.2,1s0.4,0.3,0.8,0.3s0.7-0.1,0.8-0.3s0.2-0.5,0.2-1v-5.9H282.9z"/>
		<path d="M290,106.1c0,1-0.3,1.7-0.8,2.2s-1.2,0.8-2.1,0.8c-1,0-1.7-0.3-2.2-1s-0.8-1.5-0.8-2.7V104c0-1.2,0.3-2.1,0.8-2.7
			s1.3-1,2.2-1c0.9,0,1.6,0.3,2.1,0.8s0.8,1.3,0.8,2.2h-1.7c0-0.6-0.1-1-0.3-1.2s-0.5-0.3-0.9-0.3c-0.5,0-0.8,0.2-1,0.5
			s-0.3,0.9-0.3,1.6v1.6c0,0.8,0.1,1.4,0.3,1.7s0.5,0.5,1,0.5c0.5,0,0.8-0.1,0.9-0.3s0.3-0.6,0.3-1.2H290z"/>
		<path d="M296.8,106.1c0,1-0.3,1.7-0.8,2.2s-1.2,0.8-2.1,0.8c-1,0-1.7-0.3-2.2-1s-0.8-1.5-0.8-2.7V104c0-1.2,0.3-2.1,0.8-2.7
			s1.3-1,2.2-1c0.9,0,1.6,0.3,2.1,0.8s0.8,1.3,0.8,2.2h-1.7c0-0.6-0.1-1-0.3-1.2s-0.5-0.3-0.9-0.3c-0.5,0-0.8,0.2-1,0.5
			s-0.3,0.9-0.3,1.6v1.6c0,0.8,0.1,1.4,0.3,1.7s0.5,0.5,1,0.5c0.5,0,0.8-0.1,0.9-0.3s0.3-0.6,0.3-1.2H296.8z"/>
		<path d="M299.7,109h-1.7v-8.5h1.7V109z"/>
		<path d="M307.1,105.5c0,1.1-0.3,2-0.8,2.7s-1.3,0.9-2.3,0.9c-1,0-1.7-0.3-2.3-0.9s-0.8-1.5-0.8-2.6v-1.5c0-1.2,0.3-2.1,0.8-2.7
			s1.3-1,2.3-1c0.9,0,1.7,0.3,2.2,1s0.8,1.6,0.8,2.7V105.5z M305.4,104c0-0.8-0.1-1.3-0.3-1.7s-0.6-0.6-1-0.6c-0.5,0-0.8,0.2-1,0.5
			s-0.3,0.9-0.3,1.6v1.5c0,0.7,0.1,1.3,0.3,1.6s0.6,0.5,1,0.5c0.4,0,0.8-0.2,1-0.5s0.3-0.9,0.3-1.6V104z M304.4,98.2h1.9l-1.6,1.8
			h-1.4L304.4,98.2z"/>
		<path d="M314.3,109h-1.7l-2.5-5.6v5.6h-1.7v-8.5h1.7l2.5,5.6v-5.6h1.7V109z"/>
	</g>
</g>
</svg>
